<mxfile host="app.diagrams.net" modified="2021-06-16T04:19:48.475Z" agent="5.0 (Macintosh; Intel Mac OS X 10_15_7) AppleWebKit/537.36 (KHTML, like Gecko) Chrome/91.0.4472.77 Safari/537.36" etag="5OZO5IMJ6GiYFMHOz16P" version="14.7.7" type="github">
  <diagram id="hK1T8ouw-TFNyU8w3qkK" name="Page-1">
    <mxGraphModel dx="497" dy="436" grid="0" gridSize="10" guides="1" tooltips="1" connect="1" arrows="1" fold="1" page="1" pageScale="1" pageWidth="827" pageHeight="1169" background="#FAFAFA" math="0" shadow="0">
      <root>
        <mxCell id="0" />
        <mxCell id="1" parent="0" />
        <mxCell id="YiboruN_snOdoC5K4j6c-10" value="" style="ellipse;whiteSpace=wrap;html=1;fillColor=none;strokeWidth=5;" vertex="1" parent="1">
          <mxGeometry x="467" y="5" width="252" height="241" as="geometry" />
        </mxCell>
        <mxCell id="YiboruN_snOdoC5K4j6c-6" value="" style="ellipse;whiteSpace=wrap;html=1;fillColor=none;strokeWidth=5;" vertex="1" parent="1">
          <mxGeometry x="467" y="297" width="252" height="241" as="geometry" />
        </mxCell>
        <mxCell id="YiboruN_snOdoC5K4j6c-7" value="" style="ellipse;whiteSpace=wrap;html=1;fillColor=none;strokeWidth=5;" vertex="1" parent="1">
          <mxGeometry x="438" y="276" width="252" height="241" as="geometry" />
        </mxCell>
        <mxCell id="YiboruN_snOdoC5K4j6c-8" value="" style="ellipse;whiteSpace=wrap;html=1;fillColor=none;strokeWidth=5;" vertex="1" parent="1">
          <mxGeometry x="511" y="270" width="252" height="241" as="geometry" />
        </mxCell>
        <mxCell id="YiboruN_snOdoC5K4j6c-1" value="" style="verticalLabelPosition=bottom;verticalAlign=top;html=1;shape=mxgraph.flowchart.on-page_reference;fillColor=#000000;" vertex="1" parent="1">
          <mxGeometry x="588" y="209" width="10" height="10" as="geometry" />
        </mxCell>
        <mxCell id="YiboruN_snOdoC5K4j6c-2" value="" style="verticalLabelPosition=bottom;verticalAlign=top;html=1;shape=mxgraph.flowchart.on-page_reference;fillColor=#000000;" vertex="1" parent="1">
          <mxGeometry x="588" y="358" width="10" height="10" as="geometry" />
        </mxCell>
        <mxCell id="YiboruN_snOdoC5K4j6c-3" value="" style="shape=image;verticalLabelPosition=bottom;labelBackgroundColor=#ffffff;verticalAlign=top;aspect=fixed;imageAspect=0;image=data:image/png,iVBORw0KGgoAAAANSUhEUgAAADMAAAAuCAYAAACF6SFvAAAFCUlEQVRoBdWaWaiVVRTHf6WFhpWpRdgABVn5kJoWadBIUTRS0EtF2EMRJCEFTQ9RmII00EQD0fyQVkRUBCIqDVJJRLOVoA8O2DzRPPGHb9+zXOzp+865XO+Cw57W+q+9vj2vdaA/Ogw4G7gWeAh4HLgbuByYAezSAX4scBpwI/BAg3k7cCVwBjCuA2ZSRMouBj4A/iv8PmsM2z2J1muQ4VcBXxUwvwXuAg7viXbLXQBsKiiLGbgB0Cim6CBgRQfcW1KAufoxwNKIMn2lp5ppdiZwFnAf8EeEV198dkTJPOAHx/8JcBNwfiOjqbwIUL3/WK0M2hNY5UC+A64G9oh0TlWHAJudjDrxMzDdyGi0vjF8PwLzAX08T9OAVw2vNep4zxwr7xYZ/peB/WPMrk6L+N+I8tcavimApl/olEZ5jsMIRWH9ZniDTEgfDoypVAvyGQfwILBrSiBSv8zJB+WnA0+btr+B4yLyqjoY+MnwBgybrk7IDlVf5wDuGWqpz1zqMGwHbP7WDOT9FRhvZ+Q50g2r1kxsHucw1HZMRUe2ArmtW9u7NTyWfyTVEU2jdw3AFmDfFHOhXgs8ptzW3VzA+KUC44oUxiVOWFOlK+kWYDvu878Ckwvg7xQwtqU+tk53u8Os63glCf3TOeENsOXiLgT4tWvltXGcEpT51I/KSZ6hZfmGgjFV5wNwW2Sb16I/Otcfezh+nGOsbHs2Y4wOyzbb/F7AiYBuGgeW9O/nrL+mJFDR/kXGmBcq5Duz6CAL8/H3ioVZUqSFHfBi6YISQD/t2nnC9eOJfoAaWV06Y0aEuqMGoCMLcWzzMJqQ5aprXJwxRuuly8OtTvMwcL2ZMebFYdA3bJB62sbeNGGKDWJzGbbOe+CTM6Mig2Z6gZ25rEMujIJP9bBrc76MuJ2vZ4x5acR716IDekrn1svCFlgjzqonrp9atpy9T414710HlmSM+X60rRf7sLMjorycIaOGJgJ6Y3gjQllu3FFDpcdYypW0Uxoob2YYBZ/Ka9nFKWIN3adxBH7UOAtt28Dzn2aMeWUA2q43+IPAS3ZpqlHkR0VlveX7pc+Njnv7BcvJlxx+c3PCFW3yF9iPdG5O5lBAQZ2VwHrg+Sa2kpOxbbrWW2U2Lz9xztFncVL5xwz+dkCepCjJK5Py5yp6VaJJhSvMeyWAQrs+tL0i6SIbJcVH/jFW2y+qvM6NvaOSvUpFvLycLctJ3g8tN/i6Reg8i1JuBwodOicq2atca5QFGZve2WNtnfNrRbHOJFmlqfx5SWk4oWCIMBW87UKavhsNvuKoihklKWWArVfUKkbjgS+NMitj8yHAFMNI1ekBJ7mA82fNCzUwp9I3UtqAO4wyyT9q3FUW72tAhteSdqonHXbVvc4q9XkNsWI1MdI9zG4c2tJ1XZGn0uOorE2ihuTm0u3aYuiaVEWxQKqA3gLksvWk4VekKzgMxatwumKUIskogGQ7o7ziPEc0PKlEXlUfmn+uzRtIw+cVy+mgqJd11MlxLae1nceSU0h8luudogeKvcRwNaI2Sq1A1oXAmgi/pnHycHQ6h4qKsXvFoaNy5r2feKeo7YAhlB0z+hixERLuX4COhFS7omUX7QjXrnQZ8GHCqJihOjtKX02G6hqinSiG4etkhP57o39sDIRObcLaCr/pDhQU6n6lYKmMSG0KqQ4onqIriNxMwgjGKdqgOJA2DQWmdK50pv8BW4nSON5iVzAAAAAASUVORK5CYII=;" vertex="1" parent="1">
          <mxGeometry x="618.0006896551724" y="340.00172413793103" width="51" height="46" as="geometry" />
        </mxCell>
        <mxCell id="YiboruN_snOdoC5K4j6c-5" value="" style="shape=image;verticalLabelPosition=bottom;labelBackgroundColor=#ffffff;verticalAlign=top;aspect=fixed;imageAspect=0;image=data:image/png,iVBORw0KGgoAAAANSUhEUgAAAC8AAABCCAYAAADHTY8oAAAF4ElEQVRoBcWad8j/UxTH3/beO+sPpJAtZBcp5Cd7JBJCslIoipC9Z0JmKZKkRMkoq8jehJC9d2Yvvvd5znOe+zn3fu7nGae+fe44533Ovd9z17lXqqMFJW0m6UhJ10i6UdJZkg6UtFgdxMxzzSvpREnfS/qn4/eLpEsl0cDpoHkkbSXpdEmnStqyRsmmkl7pMDjXkFclrVID3IOHDnkgY8MpEQaGf+eEnpF0jqRdR+7yraunQc9KWiAC7ln3cEYHer6RNHcOawNJXxshGrFvhvEYw2P/iTMyvC1Fa3bgJ12T/uVFJb1vhD6XtGGH5k0MXwLk+7EkxspQOroDP+la0iu41gj8IWkbz2DyGxveBJi+2xq+1uTdAf57HnQ7SX8bgXBQSNrf8Caj0/dQD96Q/yLAv8HjPW2Y35Q0n2dw+TMNfzI6fYf6/doBNjoOsLbs5JiZUUp0n5NJhvM9uSRcqD8iwAZ/JSv/qGFmbi8RA5vFyRps03uUAAr1dwbYb1nZtRzj4bayI83fZo316fU65GqLPwnwr7cg5xrGHyqX+chlPpPEkt5KvjN9xzBRjNHbxvg7xkq7E8tI+t3IePCru0Wrakr+vqJFscprfPXYwHCw2H0Oocjf3/DAyfgfK13mucD4msHu9fs8K3SyyX+v88yJ4WZfkcmvGwCDc1JGpk9Ryd/382BbS2J1LS1KyJ0XGP+npAn+6BVV5Ev+vkIFRpZlLkkfBsY/mJXqVxj5++v9oCZys9lKLpb7ciQcStH8zqaxma4KjGewL9yM/L9gyd/3acXHZaJZ4JZWYCNX8vflDW+v5BZBr+NCbOyGUuTvrw0BvzAwnshCzUxV0h/5O+GWZno3MP6uZtRxwZK/7z3O2i+1TmA4LnNQP7gsd+TvnO6Wy0pVFB4VGM85d6kKjBJL5O/Eg5qJnWZuXqfs8WbUiYKRvzNFN5MNhfhGcBYYSiV/36tVwcpBr9OQ3VuBjVzJ35c1vL2SOxSMb94oGSsif3/Z8PVORrGZD3qj5QUif78yL1JXenzQ81Oxiyz5+551Zua57OHcD9bb8iK9Skv+znm5maKo2MXNqOOCkb+/NM7WljokcJuhIT2ivGyl/T+a8le0mTwuRZQ4gfnv0J7HOI9p8zWRjHFLMykC+BbQpm/P8NcWYZiNSFtc0tQtXQvWxcchhAiYBydPJLmFCAVG7gL2iy3AORni9DnjKePuqg/xT3Ix0IWXyi/vAxrxLi4pd3mGoklB/gBoN0lfVRgO7pwAp3dV1PulWPz8o3va1Kul719TtM2e0MhLgl7jitMvKOSPk0S8xRpMJNrmffqFCVqnMHNRoJjIMRsproc+kkQPesMYiFzERQOW2/RpI6LAD2UM84baPJdjnMjSVbyt8+mp2GYXG7/56PHEE6MbaTtv/zSaSm+VtIuLLpwfNPzX2XqIQa9ycFii0Ox3AuPvLcjOavX6geG4z4Qrm1m1NKP87MB4bhe5ZRxMzM08oGAPsn3ljUlJKc9PeMvgB2jK31QCKNV3PQ5ihWXgDaHo4ME0u/oQcGSjxwrM2603H2zw2MilXvbfQWdVDD84AE/K4GkhYusJw39/HtApY7ZwTeiBfZ5ocV9i6owiBGwhBtFCkrgQ88b6/AkNWth5epyUv78Bb5JI16ulpIQvK+iqkyTjAmYqu/JaPG5a/GYuRuuoZUq0wLk0g7kPsdp2HTzYBkSvqPro+e+tYs7gVPa8pEV6IHK5xmvAJG+/v0nauQdWkZWYo1VAmhWPGxFWRcZELbHA5d5Cgsl8PnS9yNrxlGkAB4bVslxxITK8rfQdQZ67q2kxHJP8AyAa0+edME+7vuwwHLdbI2738Np7nPJPJR3W9Xp0VE7wv6u36XHe30zlK9fOVhIpeMQ1AAPoURrGQ2Tm+sskESWOFh9wuL+dUWJzdoEkTkM53y2VPSlpxxm1OKOMW77TRofpyGBW5sckEcsfvDPM2DG4iP3JRpLwbx5A88KDVyAMwul6N180+l+pLt9gx+09LQAAAABJRU5ErkJggg==;" vertex="1" parent="1">
          <mxGeometry x="610.0041379310345" y="166.99965517241384" width="47" height="66" as="geometry" />
        </mxCell>
        <mxCell id="YiboruN_snOdoC5K4j6c-9" value="" style="endArrow=none;html=1;entryX=0.5;entryY=1;entryDx=0;entryDy=0;entryPerimeter=0;exitX=0.5;exitY=0;exitDx=0;exitDy=0;exitPerimeter=0;strokeWidth=3;" edge="1" parent="1" source="YiboruN_snOdoC5K4j6c-2" target="YiboruN_snOdoC5K4j6c-1">
          <mxGeometry width="50" height="50" relative="1" as="geometry">
            <mxPoint x="603" y="377" as="sourcePoint" />
            <mxPoint x="653" y="327" as="targetPoint" />
          </mxGeometry>
        </mxCell>
        <mxCell id="YiboruN_snOdoC5K4j6c-11" value="" style="ellipse;whiteSpace=wrap;html=1;fillColor=none;strokeWidth=5;dashed=1;" vertex="1" parent="1">
          <mxGeometry x="485" y="153" width="252" height="241" as="geometry" />
        </mxCell>
      </root>
    </mxGraphModel>
  </diagram>
</mxfile>
